<svg xmlns="http://www.w3.org/2000/svg" xmlns:xlink="http://www.w3.org/1999/xlink" width="80" height="80" viewBox="0 0 80 80">
    <defs>
        <circle id="a" cx="39.701" cy="40.237" r="39.69"/>
    </defs>
    <g fill="none" fill-rule="evenodd">
        <g>
            <use fill="#00A4FF" xlink:href="#a"/>
            <circle cx="39.701" cy="40.237" r="39.19" stroke="#00A4FF"/>
        </g>
        <path fill="#FFF" d="M55.083 29.912c1.606-1.013 2.838-2.62 3.416-4.533a15.074 15.074 0 0 1-4.937 1.989c-1.414-1.595-3.436-2.59-5.673-2.59-4.292 0-7.77 3.67-7.77 8.197 0 .643.065 1.27.198 1.867-6.457-.342-12.184-3.602-16.02-8.565a8.522 8.522 0 0 0-1.051 4.123c0 2.843 1.372 5.352 3.458 6.825A7.495 7.495 0 0 1 23.18 36.2v.101c0 3.973 2.678 7.287 6.238 8.038a7.235 7.235 0 0 1-2.05.288c-.5 0-.99-.05-1.462-.145.988 3.255 3.859 5.629 7.261 5.692-2.662 2.2-6.013 3.509-9.653 3.509a14.68 14.68 0 0 1-1.855-.113c3.44 2.324 7.525 3.682 11.915 3.682 14.299 0 22.113-12.491 22.113-23.324 0-.357-.004-.711-.02-1.06a16.248 16.248 0 0 0 3.878-4.246 14.897 14.897 0 0 1-4.463 1.29z"/>
    </g>
</svg>
