<svg xmlns="http://www.w3.org/2000/svg" xmlns:xlink="http://www.w3.org/1999/xlink" width="80" height="80" viewBox="0 0 80 80">
    <defs>
        <circle id="a" cx="40" cy="40" r="40"/>
    </defs>
    <g fill="none" fill-rule="evenodd">
        <mask id="b" fill="#fff">
            <use xlink:href="#a"/>
        </mask>
        <use fill="#25D366" xlink:href="#a"/>
        <g fill="#FFF" mask="url(#b)">
            <path d="M23.615 56.335c.178-.045.258-.063.337-.09 2.067-.666 4.134-1.341 6.21-1.99.195-.062.461-.008.648.082.896.45 1.756.99 2.679 1.386 3.796 1.629 7.709 1.89 11.665.774 4.72-1.341 8.339-4.194 10.814-8.505 2.12-3.69 2.847-7.677 2.19-11.871-.833-5.337-3.53-9.531-7.992-12.51-3.868-2.574-8.126-3.447-12.668-2.718-3.912.63-7.256 2.439-10.015 5.337-2.368 2.484-3.956 5.418-4.648 8.793-.985 4.833-.258 9.405 2.386 13.572.532.837.514 1.476.195 2.33-.647 1.756-1.189 3.547-1.8 5.41M18 61.978c.612-1.863 1.189-3.61 1.765-5.355.577-1.728 1.091-3.483 1.748-5.184.337-.864.23-1.512-.195-2.322-2.324-4.374-3.016-9.063-2.21-13.941.684-4.131 2.414-7.785 5.208-10.89 4.604-5.103 10.353-7.551 17.148-7.263 4.976.207 9.376 2.052 13.129 5.39 3.495 3.106 5.775 6.967 6.83 11.557.852 3.699.754 7.38-.292 11.025-1.331 4.617-3.877 8.424-7.665 11.322-5.26 4.032-11.16 5.283-17.591 4.014-1.934-.378-3.779-1.08-5.518-2.034-.284-.153-.523-.19-.834-.081-3.3 1.08-6.608 2.15-9.908 3.222-.497.162-1.003.333-1.615.54"/>
            <path d="M51.577 45.229c-.027 1.737-.834 3.06-2.467 3.888-1.605.81-3.237 1.017-4.914.35-1.508-.602-3.034-1.187-4.489-1.916-1.916-.963-3.486-2.403-4.923-3.996a28.832 28.832 0 0 1-4.045-5.823c-.79-1.485-1.269-3.06-1.1-4.788.177-1.836 1.02-3.303 2.44-4.41.283-.216.709-.315 1.073-.351.47-.036.94.036 1.41.072.39.036.603.315.736.639.346.864.657 1.728.985 2.6.222.586.39 1.198.657 1.765.328.702.124 1.287-.302 1.827-.364.459-.745.9-1.162 1.296-.346.333-.408.675-.178 1.08 1.02 1.845 2.262 3.5 3.904 4.842 1.082.882 2.28 1.539 3.521 2.15.364.18.719.154 1.003-.18.612-.71 1.233-1.412 1.836-2.132.39-.46.586-.55 1.109-.28 1.517.775 3.016 1.576 4.524 2.377.355.198.444.522.382.99"/>
        </g>
    </g>
</svg>
